<?xml version="1.0" encoding="UTF-8"?>
<svg version="1.1" viewBox="0 0 2048 2048" width="1280" height="1280" xmlns="http://www.w3.org/2000/svg">
<path transform="translate(1021,419)" d="m0 0h6l41 16 97 37 49 19 21 8 44 17 40 15 41 16 42 16 49 19 34 13 32 12 20 8 37 14 96 37 24 9 96 37 49 19 45 17 36 14 23 9 7 3-3 3-36 14-47 18-33 13-6 2-1 446 9 3 11 6 15 12 10 13 8 15 5 15 3 17v16l-3 18-5 15-7 14-8 10-10 10-13 9-13 6-14 4-10 2h-24l-15-3-14-5-13-7-10-8-10-10-9-14-6-13-5-19-1-6v-19l4-20 5-14 6-11 10-13 7-7 10-7 8-5 14-6v-298l1-121-29 11-39 15-99 38-24 9-1 486-2 18-6 21-8 16-7 12-8 10-9 11-8 7-7 7-16 12-18 12-19 11-17 9-25 11-35 13-28 9-46 12-39 8-48 9h-6v-95l1-1 129-1 12-3 9-7 5-7 2-6 1-11 1-157 66-1 10-2 9-6 6-7 3-8 1-5v-52l1-54-16 5-11 2h-14l-16-4-7-3v70l-3 1-67 1-11 4-8 7-5 9-1 5-1 165-1 1h-104l-30 1-10 4-8 7-5 10-1 4-1 140-1 1-43 4-20 1-1-104v-99l1-1 98-1 9-2 10-6 6-8 3-8 1-6v-109l1-83 7-2-1-5-4-11-1-5v-22l4-13 2-6h-46l-10 4-8 7-5 10-1 6-1 67-1 1h-39l5 13 2 10v20l-5 15-2 5 40 1v62l-2 2-101 1-10 4-7 6-5 8-2 7-1 243h-42l-21-1-1-1-1-82-1-2 1-2v-218l-4-11-5-7-9-6-7-2-134-1v-72l-13 5-8 2h-21l-16-4-5-2v109l4 10 7 8 8 5 7 2 133 1v263l-18-1-62-8-45-8-3-1-1-46v-107l-3-9-6-9-8-6-8-3-70-1v-71l-20 6-15 1-14-2-14-5v109l4 10 7 8 8 5 8 2h66l2 1v101l-2 1-16-5-38-13-27-11-22-10-22-12-18-11-12-9-10-8-10-9-14-14-10-13-8-13-8-17-4-13-3-19-1-29v-154l1-61 1-1 70-1-5-14-1-6v-23l3-12 4-8h-71l-1-1-1-58v-122l-30-12-177-68-138-53-33-13-3-2v-2l25-9 67-26 37-14 31-12 104-40 29-11 39-15 47-18 34-13 41-16 32-12 57-22 42-16 36-14 31-12 92-35 57-22 86-33 34-13z" fill="#0174BC"/>
<path transform="translate(480,923)" d="m0 0 9 2 27 10 15 6 12 5 10 3 49 19 20 8 9 3 20 8 35 13 16 6 3 2 13 4 25 10 42 16 10 4 21 8 11 5 17 6 15 6 14 5 24 9 49 19 16 6 34 13 20 9 2 1h9l15-5 15-7 40-15 65-25 27-10 34-13 27-11 19-7 18-7 39-15 17-6 15-6 40-15 15-6 28-11 71-27 35-13 12-5 9-2v485l-2 18-6 21-8 16-7 12-8 10-9 11-8 7-7 7-16 12-18 12-19 11-17 9-25 11-35 13-28 9-46 12-39 8-48 9h-6v-95l1-1 129-1 12-3 9-7 5-7 2-6 1-11 1-157 66-1 10-2 9-6 6-7 3-8 1-5v-52l1-54-16 5-11 2h-14l-16-4-7-3v70l-3 1-67 1-11 4-8 7-5 9-1 5-1 165-1 1h-104l-30 1-10 4-8 7-5 10-1 4-1 140-1 1-43 4-20 1-1-104v-99l1-1 98-1 9-2 10-6 6-8 3-8 1-6v-109l1-83 7-2-1-5-4-11-1-5v-22l4-13 2-6h-46l-10 4-8 7-5 10-1 6-1 67-1 1h-39l5 13 2 10v20l-5 15-2 5 40 1v62l-2 2-101 1-10 4-7 6-5 8-2 7-1 243h-42l-21-1-1-1-1-82-1-2 1-2v-218l-4-11-5-7-9-6-7-2-134-1v-72l-13 5-8 2h-21l-16-4-5-2v109l4 10 7 8 8 5 7 2 133 1v263l-18-1-62-8-45-8-3-1-1-46v-107l-3-9-6-9-8-6-8-3-70-1v-71l-20 6-15 1-14-2-14-5v109l4 10 7 8 8 5 8 2h66l2 1v101l-2 1-16-5-38-13-27-11-22-10-22-12-18-11-12-9-10-8-10-9-14-14-10-13-8-13-8-17-4-13-3-19-1-29v-154l1-61 1-1 70-1-5-14-1-6v-23l3-12 4-8h-71l-1-1-1-58v-117z" fill="#01ADE1"/>
<path transform="translate(1823,1264)" d="m0 0h1v6l9 3 11 6 15 12 10 13 8 15 5 15 3 17v16l-3 18-5 15-7 14-8 10-10 10-13 9-13 6-14 4-10 2h-24l-15-3-14-5-13-7-10-8-10-10-9-14-6-13-5-19-1-6v-19l4-20 5-14 6-11 10-13 7-7 10-7 8-5 15-6 3 8 6 8 5 5 6 4 8 2 12-1 9-4 7-6 5-10z" fill="#01AEE2"/>
<path transform="translate(1275,1103)" d="m0 0h10l15 3 12 5 10 7 5 5 6 7 7 13 4 16v17l-4 16-6 12-9 11-6 5-10 6-15 5-5 1h-19l-15-4-8-4-10-7-5-6v-2l-3-1-6-9-1-5-4-11-1-5v-22l4-13 2-6-2-2 4-2 7-9 10-9 10-6 11-4z" fill="#FB9409"/>
<path transform="translate(598,1072)" d="m0 0h21l13 4 12 6 10 8 7 8 7 14 4 15v18l-4 15-6 12-7 9-9 8-13 7-11 4h-24l-12-3-12-5-9-7-8-9-6-9-5-14-1-6v-23l3-12 3-5 2-6 12-14 10-7 13-6z" fill="#FB9409"/>
<path transform="translate(635,1231)" d="m0 0 16 1 11 3 14 7 9 7 9 11 6 13 3 11 1 7-1 16-3 13-6 11-7 9-5 6h-2v2l-7 5-21 6-15 1-14-2-15-5-12-9v-2l-4-2-8-11-6-15-2-10v-18l4-15 7-13 9-11 14-9 13-5z" fill="#FB940A"/>
<path transform="translate(1436,1071)" d="m0 0 19 2 12 4 12 7 10 9 7 11 5 12 3 15v9l-3 16-4 10-7 11-8 9h-2v2l-5 4h-2l-1 2-5 1-15 4-7 1h-14l-16-4-9-4-11-9-4-5-3-3-6-10-5-15-1-6v-18l5-16 5-10 9-11 10-8 10-5 13-4z" fill="#FB9409"/>
<path transform="translate(1051,1199)" d="m0 0h8l17 3 16 8 10 8 11 13 1 5 4 13 1 6v20l-7 21-2 4-9 11-8 6-14 7-13 4h-18l-14-3-9-4-11-7-10-11-6-10-5-16-1-5v-18l4-15 8-14 7-9 11-8 13-6z" fill="#FB940A"/>
<path transform="translate(763,1104)" d="m0 0 16 1 14 4 10 5 6 4 8 7 9 14 4 11 2 10v16l-3 14-7 14-9 11-12 10-5 1-17 5h-21l-16-4-8-3-13-11-5-6-7-11-5-17-1-16 2-12 5-13 6-9 9-10 10-7 12-5z" fill="#FB9409"/>
<path transform="translate(1407,1208)" d="m0 0h1v55l-3 1h-46v-1h15l-2-7-1-7 7-9 7-7h2v-2l8-7 10-10h2z" fill="#06AFE2"/>
<path transform="translate(686,1025)" d="m0 0h2l7 8 12 11 12 12v2l4 2v2h2v2h2v2h2v2h2l12 12h2l2-4 12-12 6-4 13-13 5-2-6 7-10 9-6 8-4 4h-2v2l-6 5h-2v2h-2v2h2v3l4 2 5 5 2 3-4-1-1-3-4-2-3-2h-5l-15 15-6 10-4 4h-2l-2 4-1 3-4 4h-2v2l-4 4-6 2-2 4-2 3-7 3-4 1-1-4 2-8h2v-2l12-3 7-7 1-2h2l2-4 9-10h2l2-4 14-15 6-7-35-35v-2l-4-2-12-12-6 1v2h-2l-1 3-6 5-25 25-5 6h-5l1-4 13-11 32-32z" fill="#00A2D8"/>
<path transform="translate(1049,1338)" d="m0 0h5l-2 5-10 9-6 5-3 10-7 5-5 3-4 2v2l-8 7-12 11-6 6h-2v2l-7 4-2-2 9-10 8-8 8-7 8-8 7-8 2-4 6-3 5-6 6-5 5-6h2v-2z" fill="#00A2D8"/>
<path transform="translate(537,1168)" d="m0 0h15v2h-3v3h-2l-1 3-12 6-2 4-8 8h-2v6l-8 4-5 6-8 7-17 17h-2l-1 3-2-1v-6l3-3 6-4 12-12 8-7 4-4 2-5 6-3 7-9h2l1-6h2l2-4 2-1z" fill="#03A2D8"/>
<path transform="translate(875,1215)" d="m0 0 4 2 22 22 8 7 7 3 2 9-2 1-7 1-7 6-3 4h-2l-2 4h-2l-2 4-9 8-5 5-4 2v2h-5l2-5 20-20 8-7h2l1-3h2l2-4 1-1v-5l-1-3-2-1-6-7-7-8-8-7-1-3-3-1z" fill="#00A2D8"/>
<path transform="translate(1376,1328)" d="m0 0h29l-2 4-5 4-5 6-7 6-4 6h-2l-2 6-2 2z" fill="#00A0D7"/>
<path transform="translate(1567,932)" d="m0 0 1 2-2 6-11 12-4 4h-2l-2 4-3 1-2 4h-2l-2 5v4l-9 4-23 23h-2l-1 3h-2l-2 4-8 8-6 4-1-4 13-13 8-7 7-8 4-3h2v-2l8-7 4-9 8-3 4-6 18-18 5-2 1-5z" fill="#00A1D7"/>
<path transform="translate(1359,1028)" d="m0 0h5l-1 3-8 7-22 22h-2l-2 4-7 8-5 5-5 4v6l-5 1-4-2-1-6-3-1-3-5-7-8-6-5-5-5v-2l-4-2-2-2 1-3 3 2v2l4 2v2h2v2h2l4 4v2l4 2 8 7v2l3 1 1 2 4 1 16-14 5-5 5-6 6-5 6-7 8-7 3-5z" fill="#00A2D8"/>
<path transform="translate(844,1208)" d="m0 0 2 1-3 4h-2v2l-8 7h-2v2h-2v2h-2v2h-2l-2 4h-2l-2 4-8 8-4 8 1 5 2 5-2 1-8-1v-22h4l6-3 2-4 3-3h3v-2h2v-2l7-6 5-5z" fill="#00A2D8"/>
<path transform="translate(1154,1457)" d="m0 0h2l-1 7-5 5-5 6-2 7-9 4-9 10-9 8-5 5-7 6-3 1 1-4 3-4h2l2-4 17-17 9-11 5-5 12-13z" fill="#00A2D8"/>
<path transform="translate(1406,1207)" d="m0 0h1v7l-8 7-10 10h-2v2l-8 7-7 9 1 7 1 1v6h-9l2-4h-6l-3 1-1 2-2-1 1-6h2l2-4 13-12 8-8 9-7 9-8z" fill="#00A1D7"/>
<path transform="translate(621,1204)" d="m0 0h4l-1 5-13 10-4 2-1 4-3 3-1 2h-2l-1 4h-2l-2 5-8 7-4 7-2 4-3 2h-8l1-7 12-11h2v-2l7-5 5-6 4-4 8-10z" fill="#00A2D8"/>
<path transform="translate(1150,1573)" d="m0 0h1v11l-4 1-2 9-5 4-6 3h-2v2h-2v2l-8 7-6 4h-2v-2l-2-1 9-10 17-17 6-5h2l2-4z" fill="#00A2D8"/>
<path transform="translate(1316,1520)" d="m0 0h13l-5 4-12 9-1 6-8 3v2h-2v2l-8 7-4 5-5 4h-2l-2 4-6 4h-2l2-5h2l2-4 3-4h2v-2l5-4 8-8h3l2-5 3-7 6-4 1-3 2-1v-2z" fill="#00A0D7"/>
<path transform="translate(974,1188)" d="m0 0 3 1v2h-2l-1 6h-2v2l-6 3h-3l-2 4-21 21-1 2h-2v2l-4 4h-2v2h-2v2l-8 7-4 2 1-4 4-5h2v-2h2l2-4h2v-2h2v-2h2v-2h2v-2h2v-2h2v-2l8-7 5-5h2l2-4h2l2-4 2-2v-9l7 1z" fill="#00A2D8"/>
<path transform="translate(1196,1078)" d="m0 0 3 1 2 7v3l-1-2-10 2v2l-8 7-18 18-5 6-8 7-7 7h-2l1-5 3-4h2l2-4 11-10h2v-2l6-4 5-6 8-7 5-6h2l1-4 2-4z" fill="#00A2D8"/>
<path transform="translate(520,1077)" d="m0 0h2v7l5 5 1 3h2v3l-6-1-2-2h-7l-6 4-8 7h-6l2-4 3-3h2l2-4 9-10 1-3z" fill="#00A2D8"/>
<path transform="translate(697,1263)" d="m0 0 5 1 1 2 2-1 7 4 5 6v2h2l7 10 1 7-3 1-5-3v-3l-4-2-5-7-2-6-5-2v-3l-5 1-2-5z" fill="#00A2D8"/>
<path transform="translate(1135,1136)" d="m0 0h6l2 1 2 5 4 3-1 5-5-2-6-1h-4v2l-8 7-3 3h-2v2l-8 7-3 3h-2v2h-2v2h-2v2h-2l1-4 6-5 7-8 12-12 1-2h2l2-4z" fill="#00A2D8"/>
<path transform="translate(1216,1207)" d="m0 0 5 5 11 12 6 8-1 5-7-2-6-5-5-6-3-2z" fill="#00A2D8"/>
<path transform="translate(1022,1585)" d="m0 0h1v15l-4 1-1 3-7 6-9 9-8 3 1-5 12-13 9-9 4-2z" fill="#00A2D8"/>
<path transform="translate(1022,1475)" d="m0 0 2 3-1 9-11 10-5 4h-2l-1 3-10 8h-2l2-6 4-5h2l2-4 19-19z" fill="#00A2D8"/>
<path transform="translate(714,1220)" d="m0 0h5l3 5-2 2-7 2-8 6-2 3h-2l-2 5-2 3-2 7 1 1v10l-4-5-7-9 2-1 1-2 2 1 2-5 8-6h2v-3l7-6z" fill="#00A0D7"/>
<path transform="translate(1376,1328)" d="m0 0h22l-4 1-2 4-2 2h-3l-2 6-5 5h-4z" fill="#02AEE2"/>
<path transform="translate(1303,1425)" d="m0 0 1 3-6 9-9 7-7 6-2 5h-7l6-8 4-6 6-5 7-8z" fill="#00A2D8"/>
<path transform="translate(1493,1233)" d="m0 0 3 1h-2l-2 4-4 4h-2l-1 5-1 2h-2l-1 9-5 3h-4l-1-14 2-4 7 2v-2l5-3 6-5h2z" fill="#03A3D8"/>
<path transform="translate(1195,1421)" d="m0 0h3l-2 4h-2v2h-2v2l-5 5h-2l-2 4-5 5-6 3h-3l1-5 11-9 3-3 2-6z" fill="#04A3D8"/>
<path transform="translate(1400,986)" d="m0 0 4 1-3 2-2 5-9 9-7 8-5 6-7 5h-2l-1 2 1-5 5-6 6-5 3-4h2l2-4 5-4 5-5-4-2z" fill="#00A2D8"/>
<path transform="translate(894,1380)" d="m0 0h1v8l-8 7-12 11h-2v2l-8 6-3-1 9-10 13-13 8-7z" fill="#00A2D8"/>
<path transform="translate(1297,1317)" d="m0 0h4l-2 5-7 7-8 7-3 3h-2v2l-5 4h-2l-1 4-11 9-2-1 7-8 5-5 3-1 2-4 4-2 1-3h2l2-4z" fill="#00A2D8"/>
<path transform="translate(911,1139)" d="m0 0 4 1-1 4-9 6-24 24h-2l-1 3h-2l-2 4-5 5-2-1 4-6 4-4h2v-2h2v-2h2v-2h2l2-4 5-6h2v-2h2v-2h3v-2h2v-2h2v-2h2l1-3 4-3 1-3z" fill="#00A2D8"/>
<path transform="translate(655,1220)" d="m0 0 4 1 6 5 1 4 4 2v2l4 1v2h2v3h2l-1 4-8-5-13-5 2-6-1-4h-2z" fill="#00A0D7"/>
<path transform="translate(556,1043)" d="m0 0h2l-2 4-5 6h-2l-2 4h-2v2h-2l-2 4-8 8-8 6-2-1 3-6 3-1v-2l8-7 10-10 7-6z" fill="#00A2D8"/>
<path transform="translate(946,1101)" d="m0 0 10 3v1l-6 1-5 5-15 14-5 5-4 3h-2l1-4h2l2-4 6-6h2v-2h2v-2l4-4h2v-2h2l2-4z" fill="#00A2D8"/>
<path transform="translate(1566,1049)" d="m0 0h1v5l-8 7-19 19h-4l2-5 15-15 11-8z" fill="#00A2D8"/>
<path transform="translate(734,1313)" d="m0 0h1v10l-4 2-2 4-10 8-7 7-2-1 3-3 1-3h2l2-4 11-14z" fill="#00A2D8"/>
<path transform="translate(1566,1159)" d="m0 0h1v8l-10 9-7 7-9 7h-2l2-5 7-8 15-12z" fill="#00A2D8"/>
<path transform="translate(894,1493)" d="m0 0h1v8h-4v2l-17 17h-2v2l-5 3h-2l2-4 7-8 7-6 4-4 5-4h2l1-5z" fill="#00A2D8"/>
<path transform="translate(960,1408)" d="m0 0 1 2 4 2 1 4 5 1-1 7-10 4-1-16z" fill="#05A4D8"/>
<path transform="translate(672,1488)" d="m0 0h16v1l-9 2-8 6-8 9-4 2-1-3 12-16z" fill="#00A2D8"/>
<path transform="translate(1237,1266)" d="m0 0 2 1-4 5h-2l-2 4-8 8-4 3-2 5-2-4 1-8 4-1h2v-2h2v-2l4-3h2l1-2z" fill="#07A4D9"/>
<path transform="translate(1109,1335)" d="m0 0 6 2 4 4v2l4 2 5 6v4l5 1 8 2v1h-13l-4-6-12-12v-3h-2z" fill="#00A2D8"/>
<path transform="translate(1078,1191)" d="m0 0h8l-2 7 4 5 4 3-1 2h-3l-16-6 4-2z" fill="#00A0D7"/>
<path transform="translate(502,986)" d="m0 0v3l-16 16h-2l-2 4h-3l1-7 9-7 5-4h3v-2z" fill="#06A4D8"/>
<path transform="translate(865,1070)" d="m0 0 5 1v2l-5 5-4 3h-2l3 8-7-1-10 9h-2v-2h2l2-4h2l2-4 1-3 5-2 3-6z" fill="#00A2D8"/>
<path transform="translate(1331,1106)" d="m0 0 6 4 12 12 2 4-8-1v-2l-4-2-8-11z" fill="#00A2D8"/>
<path transform="translate(1566,1271)" d="m0 0h1v11l-4 1-5 5-7 6-3 1 1-5 7-7 7-5z" fill="#00A2D8"/>
<path transform="translate(490,1169)" d="m0 0h8l4 6 7 8v2l-6-1-5-6-7-6z" fill="#00A2D8"/>
<path transform="translate(490,1333)" d="m0 0h4l-1 5-4 5-7 5h-3l1-8 5-2z" fill="#07A2D8"/>
<path transform="translate(1251,1588)" d="m0 0 4 1v5l-13 9-2-1 2-5 5-7z" fill="#00A2D8"/>
<path transform="translate(655,995)" d="m0 0 8 5 15 16 7 7v2l-4-2-4-5-8-7-3-2v-2h-2v-2h-2v-2h-2v-2h-2l-3-4z" fill="#00A2D8"/>
<path transform="translate(779,1497)" d="m0 0h4v2h-2l-2 4-7 7h-2l-2 4-1-7 1-5 6-1z" fill="#08A3D8"/>
<path transform="translate(714,1220)" d="m0 0h5l3 5-2 2-7 2-8 6-2 3-2-1 1-3 7-6z" fill="#00A2D8"/>
<path transform="translate(1384,1454)" d="m0 0 1 2-2 8h-2l-2 4-3 3v-14l6-2z" fill="#00A2D8"/>
<path transform="translate(856,1418)" d="m0 0 4 1v6l-5 3-6 1 2-9z" fill="#00A2D8"/>
<path transform="translate(870,1097)" d="m0 0h2v2l6 3v2h2v2l4 2v2l4 2v2h2l6 7-1 2-10-9-15-15z" fill="#00A2D8"/>
<path transform="translate(702,1007)" d="m0 0 8 2-3 2-5 4-1 2h-2l-2 4h-2v2l-4 1v-3l7-8 3-3z" fill="#00A2D8"/>
<path transform="translate(1520,1209)" d="m0 0v3l-14 14-8 7h-2v-2h2l2-4 8-8h2v-2h2l2-4z" fill="#00A2D8"/>
<path transform="translate(1270,1382)" d="m0 0 1 2 4 2 13 13 4 3-1 2-8-5-5-5-7-6-2-5z" fill="#00A2D8"/>
<path transform="translate(1249,1249)" d="m0 0h5l1 5-2 4-7 3-3 1 2-4 2-5z" fill="#00A2D8"/>
<path transform="translate(536,944)" d="m0 0 12 3v1l-7 2-10 10-2-1 7-11z" fill="#00A2D8"/>
<path transform="translate(615,974)" d="m0 0 5 1 3 2 5 1-1 2-8 4-4 5h-2v2l-4 1 3-5 4-5 3-2v-3z" fill="#00A2D8"/>
<path transform="translate(852,1531)" d="m0 0 7 2 1 4-3 3h-6v-8z" fill="#00A2D8"/>
<path transform="translate(1249,1362)" d="m0 0 5 1 1 1v7l-8 1-1-3 1-6z" fill="#00A2D8"/>
<path transform="translate(999,1337)" d="m0 0 8 6 7 7 2 4-8-4-3-4-4-2-2-5z" fill="#00A2D8"/>
<path transform="translate(1106,1220)" d="m0 0h2l5 5 2 1v2l4 2v1h-7l-8-9z" fill="#009DD5"/>
<path transform="translate(960,1519)" d="m0 0 5 4 1 7-3 2-3-1-1-8z" fill="#11A8DA"/>
<path transform="translate(836,1063)" d="m0 0 7 4v2h3l7 9-1 3-6-5-7-8-3-3z" fill="#00A2D8"/>
<path transform="translate(1352,1147)" d="m0 0h4l-2 6-4 5-4 1 1-5z" fill="#00A2D8"/>
<path transform="translate(586,1039)" d="m0 0 4 1v2l4 2 7 8-3 1v-2l-4-2-6-5z" fill="#00A2D8"/>
<path transform="translate(673,1371)" d="m0 0 4 2-2 10-2 4h-1v-15z" fill="#00A2D8"/>
<path transform="translate(1088,1520)" d="m0 0 4 1 1 3-2 4-2 10-2-2v-12z" fill="#29B0DD"/>
<path transform="translate(835,1286)" d="m0 0 9 5 3 4h-8l-3-3z" fill="#00A2D8"/>
<path transform="translate(1474,1024)" d="m0 0 5 1 1 5-6 2-2-2 1-4z" fill="#00A2D8"/>
<path transform="translate(1565,1334)" d="m0 0h2v13l-4-5-3-6z" fill="#00A2D8"/>
<path transform="translate(829,1109)" d="m0 0 2 1-3 3-3 5-4 2-1-5 3-3z" fill="#00A2D8"/>
<path transform="translate(1760,1272)" d="m0 0 4 5 4 6 10 10-5-1-5-5-6-8-2-4z" fill="#00A2D8"/>
<path transform="translate(1531,1080)" d="m0 0 5 1 1 4h-2v2l-5 1-1-4z" fill="#00A2D8"/>
<path transform="translate(1310,1411)" d="m0 0h1v20h-1l-1-5-5-2 3-4h2z" fill="#00A2D8"/>
<path transform="translate(1533,1194)" d="m0 0 3 1-2 6-6 1v-3l2-4z" fill="#00A2D8"/>
<path transform="translate(781,1045)" d="m0 0 2 1-7 7-8 7-4 4-2-1 16-16z" fill="#0174BC"/>
<path transform="translate(515,968)" d="m0 0 4 1 1 4-3 3-4 1-1-5h2z" fill="#00A2D8"/>
<path transform="translate(1847,1283)" d="m0 0 5 2 7 6 3 5-4-1-5-4-6-7z" fill="#0CA6DA"/>
<path transform="translate(480,1379)" d="m0 0 2 1 3 9-5 1-1-6z" fill="#14A9DA"/>
<path transform="translate(1211,1064)" d="m0 0 3 1-9 10-2-1 1-3h2l2-4z" fill="#00A2D8"/>
<path transform="translate(701,1487)" d="m0 0 3 1v7l-3-1v-2l-4-1v-3z" fill="#0EA7DA"/>
<path transform="translate(1436,1328)" d="m0 0h9v5l-3 1-6-5z" fill="#00A2D8"/>
<path transform="translate(1150,1352)" d="m0 0h1v7h-8l5-5h2z" fill="#00A2D8"/>
<path transform="translate(1298,1090)" d="m0 0h3l-2 5-3 2-3-1 3-5z" fill="#00A2D8"/>
<path transform="translate(538,1100)" d="m0 0 5 1 2 3h-12z" fill="#00A2D8"/>
<path transform="translate(1263,1240)" d="m0 0 1 2-4 4-5 2 4-7z" fill="#00A2D8"/>
<path transform="translate(573,1025)" d="m0 0 7 6v3l-2-2-4-1v-2l-3-1z" fill="#00A2D8"/>
<path transform="translate(1376,1372)" d="m0 0 2 3 2 5v3l-4-1z" fill="#00A2D8"/>
<path transform="translate(1561,1224)" d="m0 0 6 1 1 6-5-3z" fill="#0097D1"/>
<path transform="translate(785,1039)" d="m0 0 4 1v2l-4 4-4-2 2-3h2z" fill="#00A2D8"/>
<path transform="translate(949,1552)" d="m0 0v3l-9 9v-3z" fill="#FBAB40"/>
<path transform="translate(937,1564)" d="m0 0 2 1-2 1z" fill="#FBB659"/>
<path transform="translate(942,1446)" d="m0 0 2 1-2 1z" fill="#FBFBFB"/>
<path transform="translate(476,1235)" d="m0 0 1 2-2-1z" fill="#FBFBFB"/>
<path transform="translate(934,1568)" d="m0 0" fill="#FBFBFB"/>
<path transform="translate(935,1567)" d="m0 0" fill="#FBFBFB"/>
<path transform="translate(936,1566)" d="m0 0" fill="#FBFBFB"/>
<path transform="translate(950,1551)" d="m0 0" fill="#FBFBFB"/>
<path transform="translate(955,1546)" d="m0 0" fill="#FB9409"/>
<path transform="translate(956,1545)" d="m0 0" fill="#FBFBFB"/>
<path transform="translate(937,1452)" d="m0 0" fill="#FBFBFB"/>
<path transform="translate(938,1451)" d="m0 0" fill="#FBFBFB"/>
<path transform="translate(940,1449)" d="m0 0" fill="#FBFBFB"/>
<path transform="translate(941,1448)" d="m0 0" fill="#FB9409"/>
<path transform="translate(944,1445)" d="m0 0" fill="#FBFBFB"/>
<path transform="translate(945,1444)" d="m0 0" fill="#FBFBFB"/>
<path transform="translate(946,1443)" d="m0 0" fill="#FBFBFB"/>
<path transform="translate(955,1433)" d="m0 0" fill="#FBFBFB"/>
<path transform="translate(956,1432)" d="m0 0" fill="#FB9409"/>
<path transform="translate(957,1431)" d="m0 0" fill="#FBFBFB"/>
<path transform="translate(476,1348)" d="m0 0" fill="#FB9409"/>
<path transform="translate(477,1347)" d="m0 0" fill="#FB9409"/>
<path transform="translate(476,1267)" d="m0 0" fill="#FBFBFB"/>
<path transform="translate(475,1266)" d="m0 0" fill="#FB9409"/>
<path transform="translate(474,1265)" d="m0 0" fill="#FB9409"/>
<path transform="translate(473,1264)" d="m0 0" fill="#FB9409"/>
<path transform="translate(1561,205)" d="m0 0" fill="#FBFBFB"/>
<path transform="translate(1509,153)" d="m0 0" fill="#FBFBFB"/>
<path transform="translate(1505,149)" d="m0 0" fill="#FBFBFB"/>
<path transform="translate(1501,145)" d="m0 0" fill="#FBFBFB"/>
</svg>
